<svg width="165" height="144" viewBox="0 0 165 144" fill="none" xmlns="http://www.w3.org/2000/svg">
<path d="M163.784 143.387H0.800781V1.09947C0.800781 0.609879 1.25548 0.21228 1.81707 0.21228C2.37788 0.21228 2.83331 0.609207 2.83331 1.09947V141.613H163.785C164.346 141.613 164.801 142.01 164.801 142.499C164.8 142.989 164.345 143.387 163.784 143.387Z" fill="#B8993A"/>
<path d="M163.784 143.387H0.800781V1.09947C0.800781 0.609879 1.25548 0.21228 1.81707 0.21228C2.37788 0.21228 2.83331 0.609207 2.83331 1.09947V141.613H163.785C164.346 141.613 164.801 142.01 164.801 142.499C164.8 142.989 164.345 143.387 163.784 143.387Z" fill="black" fill-opacity="0.2"/>
<path d="M148.46 135.869H10.7624C10.2016 135.869 9.74609 135.472 9.74609 134.982C9.74609 134.492 10.2008 134.094 10.7624 134.094H148.46C149.02 134.094 149.476 134.491 149.476 134.982C149.476 135.472 149.021 135.869 148.46 135.869Z" fill="#B8993A"/>
<path d="M148.46 135.869H10.7624C10.2016 135.869 9.74609 135.472 9.74609 134.982C9.74609 134.492 10.2008 134.094 10.7624 134.094H148.46C149.02 134.094 149.476 134.491 149.476 134.982C149.476 135.472 149.021 135.869 148.46 135.869Z" fill="black" fill-opacity="0.2"/>
<path d="M10.1974 135.727C9.72798 135.727 9.34766 135.395 9.34766 134.986V15.3613C9.34766 14.9522 9.72798 14.6201 10.1974 14.6201C10.666 14.6201 11.0464 14.9522 11.0464 15.3613V134.985C11.0464 135.395 10.666 135.727 10.1974 135.727Z" fill="#B8993A"/>
<path d="M10.1974 135.727C9.72798 135.727 9.34766 135.395 9.34766 134.986V15.3613C9.34766 14.9522 9.72798 14.6201 10.1974 14.6201C10.666 14.6201 11.0464 14.9522 11.0464 15.3613V134.985C11.0464 135.395 10.666 135.727 10.1974 135.727Z" fill="black" fill-opacity="0.2"/>
<path d="M9.18951 120.76H9.1875V120.759L9.18951 120.76Z" fill="#B8993A"/>
<path d="M9.18951 120.76H9.1875V120.759L9.18951 120.76Z" fill="black" fill-opacity="0.2"/>
</svg>
